Coordinates
version=1
nRows=13
nColumns=63
inDegrees=yes

Units are S.I. units (second, meters, Newtons, ...)
If the header above contains a line with 'inDegrees', this indicates whether rotational values are in degrees (yes) or radians (no).

endheader
time	pelvis_tilt	pelvis_list	pelvis_rotation	pelvis_tx	pelvis_ty	pelvis_tz	hip_flexion_r	hip_adduction_r	hip_rotation_r	knee_angle_r	knee_angle_r_beta	ankle_angle_r	subtalar_angle_r	mtp_angle_r	hip_flexion_l	hip_adduction_l	hip_rotation_l	knee_angle_l	knee_angle_l_beta	ankle_angle_l	subtalar_angle_l	mtp_angle_l	L5_S1_Flex_Ext	L5_S1_Lat_Bending	L5_S1_axial_rotation	L4_L5_Flex_Ext	L4_L5_Lat_Bending	L4_L5_axial_rotation	L3_L4_Flex_Ext	L3_L4_Lat_Bending	L3_L4_axial_rotation	L2_L3_Flex_Ext	L2_L3_Lat_Bending	L2_L3_axial_rotation	L1_L2_Flex_Ext	L1_L2_Lat_Bending	L1_L2_axial_rotation	L1_T12_Flex_Ext	L1_T12_Lat_Bending	L1_T12_axial_rotation	Abs_r3	Abs_r2	Abs_r1	Abs_t1	Abs_t2	neck_flexion	neck_bending	neck_rotation	arm_flex_r	arm_add_r	arm_rot_r	elbow_flex_r	pro_sup_r	wrist_flex_r	wrist_dev_r	arm_flex_l	arm_add_l	arm_rot_l	elbow_flex_l	pro_sup_l	wrist_flex_l	wrist_dev_l
0.880952	-3.489999	-3.103860	85.614603	0.245674	0.806804	0.709488	14.742320	-1.109226	10.175882	17.967992	0.313601	20.041667	-11.016282	0.000000	8.699114	1.028257	-6.236888	6.642067	0.115926	21.636168	-2.513927	0.000000	-0.150690	-0.859475	2.512473	-0.279846	-1.143102	2.669503	-0.247568	-2.089728	2.669503	-0.172224	-2.089728	2.198414	-0.139931	-1.752642	2.041385	-0.086104	-1.331327	1.884355	-1.076363	-9.722556	13.973624	0.000000	0.000000	16.850783	-0.229229	4.598594	51.184332	-3.322619	-10.759114	137.551580	79.587467	-4.860342	17.168056	48.520763	-13.258096	-23.507865	149.588806	80.055222	0.773789	0.647727
0.904762	-3.454416	-3.361782	86.096160	0.245412	0.805799	0.709623	15.109746	-1.075586	9.926059	18.238104	0.318315	20.378489	-11.395317	0.000000	9.191105	1.025530	-5.205616	7.102401	0.123960	21.660094	-3.528777	0.000000	-0.173564	-0.867452	2.407504	-0.322325	-1.153711	2.557973	-0.285148	-2.109122	2.557973	-0.198366	-2.109122	2.106566	-0.161171	-1.768907	1.956097	-0.099174	-1.343683	1.805628	-1.239749	-9.812786	13.389817	0.000000	0.000000	15.210670	0.222146	5.148449	50.589189	-5.041450	-8.034716	136.491083	78.615168	-5.897196	15.302394	44.126829	-14.618368	-23.506860	148.555782	78.554268	-0.101317	1.667722
0.928571	-3.388763	-3.580183	86.625589	0.244995	0.805055	0.709678	15.350111	-1.045977	9.571023	18.365876	0.320545	20.697065	-11.633093	0.000000	9.588068	1.007275	-4.127738	7.469536	0.130368	21.624776	-4.498870	0.000000	-0.194347	-0.872024	2.256016	-0.360921	-1.159792	2.397017	-0.319292	-2.120239	2.397017	-0.222119	-2.120239	1.974014	-0.180470	-1.778231	1.833013	-0.111050	-1.350765	1.692012	-1.388198	-9.864507	12.547284	0.000000	0.000000	13.422506	0.754981	5.719100	51.017382	-7.386439	-6.085044	135.421095	78.111940	-7.914519	13.228966	38.643276	-16.368409	-23.053463	146.873953	77.428707	-0.970062	3.391930
0.952381	-3.284850	-3.752627	87.243228	0.244361	0.804616	0.709735	15.450381	-1.020682	9.014773	18.336900	0.320039	20.980458	-11.649024	0.000000	9.891249	0.963931	-2.892571	7.735758	0.135014	21.489298	-5.501935	0.000000	-0.211752	-0.871961	2.031098	-0.393244	-1.159708	2.158042	-0.347887	-2.120086	2.158042	-0.242011	-2.120086	1.777211	-0.196633	-1.778103	1.650267	-0.120995	-1.350668	1.523324	-1.512522	-9.863798	11.296359	0.000000	0.000000	11.526413	1.410214	6.421421	52.664284	-10.110938	-5.480879	134.472676	78.316237	-11.212352	11.425663	32.152997	-18.340640	-22.365061	144.647504	76.753583	-1.755189	5.509930
0.976190	-3.141198	-3.889611	87.719977	0.243651	0.804338	0.709902	15.502036	-0.975909	8.467707	18.251514	0.318549	21.252006	-11.436525	0.000000	10.119854	0.887561	-1.812756	7.934017	0.138475	21.342070	-6.423370	0.000000	-0.226314	-0.866708	1.774229	-0.420288	-1.152721	1.885118	-0.371811	-2.107313	1.885118	-0.258654	-2.107313	1.552450	-0.210155	-1.767391	1.441561	-0.129316	-1.342530	1.330671	-1.616539	-9.804372	9.867727	0.000000	0.000000	9.795346	2.091915	7.083600	55.282698	-12.821076	-6.529242	133.849325	78.928183	-15.496838	9.345321	24.890525	-20.379706	-21.452077	142.096782	76.548184	-2.448161	8.041802
1.000000	-2.954370	-4.019383	88.054543	0.242875	0.804130	0.710161	15.542556	-0.897366	7.945559	18.129540	0.316420	21.480383	-11.049832	0.000000	10.315546	0.766884	-0.939985	8.084058	0.141093	21.245131	-7.157950	0.000000	-0.234516	-0.854017	1.492818	-0.435519	-1.135842	1.586119	-0.385286	-2.076456	1.586119	-0.268028	-2.076456	1.306216	-0.217771	-1.741510	1.212914	-0.134002	-1.322872	1.119613	-1.675121	-9.660805	8.302605	0.000000	0.000000	8.421592	2.742758	7.748679	58.486056	-15.147264	-9.344315	133.617525	78.965583	-18.424964	6.902299	17.063319	-22.473460	-20.296313	139.453438	76.812188	-3.093497	10.768206
1.023810	-2.759336	-4.171085	88.206214	0.242190	0.803895	0.710471	15.626084	-0.790537	7.534692	18.011711	0.314364	21.672105	-10.556771	0.000000	10.514361	0.619237	-0.330611	8.198809	0.143096	21.226213	-7.702999	0.000000	-0.234962	-0.837248	1.209999	-0.436347	-1.113540	1.285624	-0.386018	-2.035685	1.285624	-0.268538	-2.035685	1.058749	-0.218185	-1.707316	0.983125	-0.134257	-1.296897	0.907500	-1.678307	-9.471116	6.729654	0.000000	0.000000	7.597388	3.249554	8.420175	61.963435	-16.949692	-13.304944	134.019325	78.772762	-20.329867	4.282793	8.962386	-24.611688	-18.911631	136.994693	77.522249	-3.825868	13.568782
1.047619	-2.638325	-4.362327	88.207540	0.241841	0.803528	0.710814	15.797622	-0.703799	7.290993	17.945570	0.313209	21.872775	-10.067720	0.000000	10.758288	0.500691	-0.000253	8.304625	0.144943	21.300028	-8.027581	0.000000	-0.230106	-0.831354	0.966473	-0.427331	-1.105701	1.026877	-0.378042	-2.021354	1.026877	-0.262989	-2.021354	0.845664	-0.213677	-1.695297	0.785259	-0.131483	-1.287767	0.724855	-1.643627	-9.404442	5.375232	0.000000	0.000000	7.359296	3.576416	8.812076	65.439886	-18.227017	-18.072695	135.368891	78.676155	-21.568118	2.111523	1.062823	-26.699776	-17.199574	134.634714	78.567889	-4.476294	15.776592
1.071429	-2.642494	-4.629170	88.073037	0.241920	0.802868	0.711206	16.129161	-0.674303	7.236297	17.987251	0.313937	22.142737	-9.607662	0.000000	11.111818	0.444364	-0.002305	8.439523	0.147297	21.479080	-8.081293	0.000000	-0.218629	-0.842779	0.785099	-0.406016	-1.120897	0.834168	-0.359186	-2.049134	0.834168	-0.249871	-2.049134	0.686962	-0.203019	-1.718596	0.637893	-0.124925	-1.305465	0.588824	-1.561646	-9.533690	4.366485	0.000000	0.000000	7.616840	3.691370	8.859323	68.490748	-18.934670	-23.254703	137.729463	78.716374	-22.000093	0.658669	-6.252835	-28.616980	-15.131575	132.241348	79.728890	-4.931034	16.921635
1.095238	-2.764742	-4.962432	87.828127	0.242392	0.801841	0.711705	16.624180	-0.677836	7.458160	18.167393	0.317081	22.444659	-9.379444	0.000000	11.603318	0.439743	-0.350125	8.672594	0.151365	21.791529	-7.831101	0.000000	-0.206304	-0.866771	0.659916	-0.383128	-1.152806	0.701161	-0.338938	-2.107467	0.701161	-0.235785	-2.107467	0.577427	-0.191574	-1.767520	0.536182	-0.117882	-1.342628	0.494937	-1.473612	-9.805088	3.670255	0.000000	0.000000	8.237959	3.562673	8.728017	70.637596	-18.970315	-28.267357	140.759127	79.093011	-21.509304	-0.870944	-12.766714	-30.290045	-12.938281	129.795262	80.862641	-5.034880	17.258508
1.119048	-3.029612	-5.365174	87.477613	0.243231	0.800357	0.712415	17.322697	-0.744091	7.905687	18.536855	0.323529	22.820458	-9.322312	0.000000	12.282579	0.507899	-1.015261	9.082627	0.158522	22.220179	-7.338759	0.000000	-0.196302	-0.906533	0.591902	-0.364552	-1.205689	0.628896	-0.322504	-2.204145	0.628896	-0.224353	-2.204145	0.517914	-0.182286	-1.848602	0.480920	-0.112167	-1.404220	0.443926	-1.402163	-10.254883	3.291980	0.000000	0.000000	9.046747	3.260625	8.360227	71.480750	-18.301912	-32.819143	144.171797	79.823192	-20.135948	-2.186757	-18.239237	-31.578894	-10.627360	127.230186	82.027393	-4.882965	17.119491
1.142857	-3.411974	-5.839298	87.109090	0.244328	0.798408	0.713378	18.215472	-0.863556	8.502388	19.087941	0.333147	23.238829	-9.471231	0.000000	13.177192	0.634177	-1.826423	9.710706	0.169484	22.730135	-6.749360	0.000000	-0.191645	-0.957392	0.553705	-0.355904	-1.273332	0.588311	-0.314854	-2.327804	0.588311	-0.219031	-2.327804	0.484492	-0.177962	-1.952314	0.449885	-0.109506	-1.483001	0.415279	-1.368902	-10.830213	3.079539	0.000000	0.000000	9.879889	2.902955	7.991194	70.824147	-16.872394	-36.491983	147.473813	80.504307	-18.320648	-3.002332	-22.515122	-32.425076	-8.284062	124.491654	83.254683	-4.680244	16.695319
1.166667	-3.972418	-6.376776	86.686935	0.245770	0.796002	0.714642	19.319025	-1.070577	9.308361	19.845875	0.346376	23.705600	-9.836984	0.000000	14.272645	0.847988	-2.852455	10.545073	0.184046	23.303083	-6.034429	0.000000	-0.196942	-1.028990	0.542548	-0.365741	-1.368557	0.576457	-0.323556	-2.501887	0.576457	-0.225085	-2.501887	0.474729	-0.182880	-2.098317	0.440820	-0.112533	-1.593906	0.406911	-1.406737	-11.640145	3.017488	0.000000	0.000000	10.592408	2.600688	7.595206	68.689850	-14.575837	-39.188027	149.852611	80.988557	-16.114414	-3.071045	-25.348048	-32.794594	-5.904342	121.570285	84.438729	-4.459654	16.419195
